<svg width="236" height="40" viewBox="0 0 236 40" fill="none" xmlns="http://www.w3.org/2000/svg">
<circle cx="20" cy="20" r="20" fill="url(#paint0_radial_1219_18)"/>
<path d="M22.375 14.4688H27.5312V11.9375C27.5312 11.375 27.5 11.0521 27.4375 10.9688C27.375 10.8854 27.3125 10.8333 27.25 10.8125C26.8958 10.6875 26.625 10.5521 26.4375 10.4062C26.25 10.2604 26.1562 10.0208 26.1562 9.6875C26.1562 8.95833 26.625 8.59375 27.5625 8.59375H29.5312C30.7396 8.59375 31.3438 9.05208 31.3438 9.96875V20.6875C31.3438 21.6042 31.2083 22.3646 30.9375 22.9688C31.4792 23.0938 31.75 23.5625 31.75 24.375C31.75 25.3542 31.3646 25.8438 30.5938 25.8438H21.5C21.0417 26.4271 20.375 26.7188 19.5 26.7188H18.5625V12.9062C18.5625 12.3646 18.5312 12.0417 18.4688 11.9375C18.4271 11.8125 18.375 11.7396 18.3125 11.7188C18.0833 11.6354 17.8438 11.5312 17.5938 11.4062C17.3646 11.2812 17.25 11.0312 17.25 10.6562C17.25 9.92708 17.7188 9.5625 18.6562 9.5625H20.7188C21.8229 9.5625 22.375 10.0208 22.375 10.9375V14.4688ZM27.5312 17.4062H22.375V22.9375H27.5312V17.4062ZM35.1562 9C35.1562 8.39583 35.0833 8.02083 34.9375 7.875C34.7917 7.72917 34.5833 7.61458 34.3125 7.53125C33.8125 7.42708 33.4167 7.29167 33.125 7.125C32.8542 6.95833 32.7188 6.69792 32.7188 6.34375C32.7188 5.53125 33.1771 5.125 34.0938 5.125H37.4062C38.5312 5.125 39.0938 5.57292 39.0938 6.46875V32.6875C39.0938 34.6875 38.0833 35.6875 36.0625 35.6875H35.1562V9ZM46.7188 17.5625H51.6875V10.9688H46.7188V17.5625ZM54.0625 8.0625C55.0833 8.0625 55.5938 8.63542 55.5938 9.78125V16.0312C55.5938 16.6354 55.4896 17.1667 55.2812 17.625C55.7604 17.7708 56 18.2292 56 19C56 19.9792 55.6146 20.4688 54.8438 20.4688H45.8438C45.3646 21.0729 44.6667 21.375 43.75 21.375H42.8125V12.3438C42.8125 11.5104 42.7812 11.0104 42.7188 10.8438C42.6562 10.6562 42.5 10.5 42.25 10.375C41.9792 10.25 41.75 10.1042 41.5625 9.9375C41.3958 9.77083 41.3125 9.51042 41.3125 9.15625C41.3125 8.42708 41.8021 8.0625 42.7812 8.0625H54.0625ZM59.4062 21.4062V9C59.4062 8.39583 59.3333 8.02083 59.1875 7.875C59.0417 7.72917 58.8333 7.61458 58.5625 7.53125C58.0625 7.42708 57.6667 7.29167 57.375 7.125C57.1042 6.95833 56.9688 6.69792 56.9688 6.34375C56.9688 5.53125 57.4271 5.125 58.3438 5.125H61.6562C62.7812 5.125 63.3438 5.61458 63.3438 6.59375V18.2812C63.3438 20.3646 62.3333 21.4062 60.3125 21.4062H59.4062ZM62.875 35.7812H50.75C49.5625 35.7812 48.9688 35.0625 48.9688 33.625V31.1875C48.9688 30.7083 48.8958 30.4062 48.75 30.2812C48.6042 30.1354 48.4479 30.0208 48.2812 29.9375C48.0312 29.875 47.8333 29.7604 47.6875 29.5938C47.5417 29.4271 47.4688 29.1562 47.4688 28.7812C47.4688 28.0729 47.7396 27.7188 48.2812 27.7188H59.125V25.4062H49.0625C48.3958 25.4062 48.0625 24.9167 48.0625 23.9375C48.0625 22.9792 48.4062 22.5 49.0938 22.5H61.8125C62.6458 22.5 63.0625 23.0208 63.0625 24.0625V28.7812C63.0625 29.9688 62.6354 30.5625 61.7812 30.5625H52.9062V32.3125C52.9062 32.7083 53.1458 32.9062 53.625 32.9062H63C63.6667 32.9062 64 33.375 64 34.3125C64 35.2917 63.625 35.7812 62.875 35.7812ZM70.875 13H76.0312V11.2188C76.0312 10.6562 76 10.3333 75.9375 10.25C75.875 10.1667 75.8125 10.1146 75.75 10.0938C75.3958 9.96875 75.125 9.84375 74.9375 9.71875C74.75 9.57292 74.6562 9.32292 74.6562 8.96875C74.6562 8.26042 75.125 7.90625 76.0625 7.90625H78.0312C79.2396 7.90625 79.8438 8.36458 79.8438 9.28125V14.0312H83.6562V8.90625C83.6562 8.36458 83.5833 8.02083 83.4375 7.875C83.2917 7.72917 83.0833 7.61458 82.8125 7.53125C82.3125 7.42708 81.9167 7.29167 81.625 7.125C81.3542 6.95833 81.2188 6.69792 81.2188 6.34375C81.2188 5.53125 81.6771 5.125 82.5938 5.125H85.9062C87.0312 5.125 87.5938 5.60417 87.5938 6.5625V25.25C87.5938 27.25 86.5833 28.25 84.5625 28.25H83.6562V16.9375H79.8438V18.6875C79.8438 19.3125 79.7396 19.8542 79.5312 20.3125C80.0104 20.4583 80.25 20.9167 80.25 21.6875C80.25 22.6667 79.8646 23.1562 79.0938 23.1562H70C69.5417 23.7396 68.875 24.0312 68 24.0312H67.0625V12.25C67.0625 11.6667 67.0312 11.3229 66.9688 11.2188C66.9271 11.1146 66.875 11.0521 66.8125 11.0312C66.5833 10.9479 66.3438 10.8438 66.0938 10.7188C65.8646 10.5729 65.75 10.3125 65.75 9.9375C65.75 9.20833 66.2188 8.84375 67.1562 8.84375H69.2188C70.3229 8.84375 70.875 9.30208 70.875 10.2188V13ZM76.0312 15.9375H70.875V20.25H76.0312V15.9375ZM87.6875 35.3438H76.1562C74.0521 35.3438 73 34.3958 73 32.5V29.2812C73 28.6562 72.9167 28.2812 72.75 28.1562C72.6042 28.0104 72.3854 27.875 72.0938 27.75C71.5521 27.6042 71.2083 27.4479 71.0625 27.2812C70.9167 27.1146 70.8438 26.8854 70.8438 26.5938C70.8438 25.8646 71.25 25.5 72.0625 25.5H75.2812C76.3854 25.5 76.9375 25.9688 76.9375 26.9062V31.7188C76.9375 32.1771 77.125 32.4062 77.5 32.4062H87.8125C88.4792 32.4062 88.8125 32.8958 88.8125 33.875C88.8125 34.8542 88.4375 35.3438 87.6875 35.3438ZM103.562 16.2188C103.188 16.0729 102.927 15.9271 102.781 15.7812C102.656 15.6146 102.615 15.4167 102.656 15.1875C102.76 14.875 103.021 14.6667 103.438 14.5625C103.875 14.4583 104.271 14.4375 104.625 14.5C106.083 14.6875 107.24 15.2292 108.094 16.125C108.969 17 109.406 18.0833 109.406 19.375C109.406 20.875 108.76 22.1979 107.469 23.3438C106.677 24.0729 105.729 24.5729 104.625 24.8438V27.8438H114.125C114.875 27.8438 115.25 28.375 115.25 29.4375C115.25 30.375 114.875 30.8438 114.125 30.8438H91.125C90.4583 30.8438 90.125 30.375 90.125 29.4375C90.125 28.375 90.4583 27.8438 91.125 27.8438H100.719V24.9375C99.5521 24.6875 98.5104 24.1562 97.5938 23.3438C96.2188 22.1979 95.5104 20.75 95.4688 19C95.4688 17.8958 95.7188 16.9062 96.2188 16.0312C96.7188 15.1354 97.3229 14.4688 98.0312 14.0312H93.625C92.9167 14.0312 92.5625 13.5521 92.5625 12.5938C92.5625 11.6562 92.9062 11.1875 93.5938 11.1875H110.812C111.542 11.1875 111.906 11.6562 111.906 12.5938C111.906 13.5521 111.542 14.0312 110.812 14.0312H104.406C102.823 14.0312 101.604 14.4896 100.75 15.4062C99.8958 16.3229 99.4688 17.4896 99.4688 18.9062C99.4688 19.8646 99.7708 20.6562 100.375 21.2812C101 21.8854 101.698 22.1875 102.469 22.1875C103.24 22.1875 103.917 21.9271 104.5 21.4062C105.083 20.8646 105.385 20.1667 105.406 19.3125C105.448 18.4375 105.292 17.7604 104.938 17.2812C104.604 16.7812 104.146 16.4271 103.562 16.2188ZM98.2188 8.46875L97.4375 7.71875C97.1667 7.46875 97.0208 7.22917 97 7C96.9792 6.75 97.0521 6.5 97.2188 6.25C97.4688 5.91667 97.7708 5.72917 98.125 5.6875C98.5 5.64583 98.9062 5.73958 99.3438 5.96875C100.24 6.40625 101.083 6.6875 101.875 6.8125C102.667 6.9375 103.677 7 104.906 7C105.844 7 106.312 7.46875 106.312 8.40625C106.312 8.90625 106.156 9.27083 105.844 9.5C105.552 9.70833 105.208 9.8125 104.812 9.8125L101.875 9.78125C100.354 9.78125 99.1354 9.34375 98.2188 8.46875ZM130.156 22.6562H133.938V12.6875H130.156V22.6562ZM135.938 9.78125C136.958 9.78125 137.469 10.3438 137.469 11.4688V15.625H140.094V10.4375C140.094 9.85417 140.031 9.48958 139.906 9.34375C139.781 9.19792 139.573 9.08333 139.281 9C138.781 8.875 138.417 8.75 138.188 8.625C137.958 8.47917 137.844 8.25 137.844 7.9375C137.844 7.16667 138.281 6.78125 139.156 6.78125H141.969C143.073 6.78125 143.625 7.25 143.625 8.1875V30.7812C143.625 32.7812 142.677 33.7812 140.781 33.7812H140.094V18.5625H137.469V20.4062C137.469 21.3229 137.344 22.0833 137.094 22.6875C137.635 22.8125 137.906 23.2812 137.906 24.0938C137.906 25.0729 137.521 25.5625 136.75 25.5625H129.312C128.854 26.1458 128.188 26.4375 127.312 26.4375H126.594V14.0625C126.594 13.2292 126.552 12.7083 126.469 12.5C126.406 12.2917 126.302 12.1458 126.156 12.0625C125.906 11.9167 125.698 11.7708 125.531 11.625C125.385 11.4583 125.312 11.2292 125.312 10.9375C125.312 10.1667 125.771 9.78125 126.688 9.78125H135.938ZM149 6.59375V32.6875C149 34.6875 148.01 35.6875 146.031 35.6875H145.281V8.90625C145.281 8.34375 145.229 7.98958 145.125 7.84375C145.042 7.67708 144.844 7.55208 144.531 7.46875C144.01 7.36458 143.625 7.23958 143.375 7.09375C143.125 6.94792 143 6.69792 143 6.34375C143 5.53125 143.49 5.125 144.469 5.125H147.344C148.448 5.125 149 5.61458 149 6.59375ZM150.719 14.3125C150.719 12.4375 151.417 10.8646 152.812 9.59375C154.229 8.32292 155.99 7.6875 158.094 7.6875C160.177 7.6875 161.927 8.32292 163.344 9.59375C164.781 10.8646 165.5 12.4375 165.5 14.3125C165.5 16.125 164.781 17.6562 163.344 18.9062C161.927 20.1562 160.177 20.7812 158.094 20.7812C155.99 20.7812 154.229 20.1562 152.812 18.9062C151.417 17.6562 150.719 16.125 150.719 14.3125ZM161.531 14.25C161.531 13.2083 161.188 12.3542 160.5 11.6875C159.812 11.0208 159.01 10.6875 158.094 10.6875C157.198 10.6875 156.406 11.0208 155.719 11.6875C155.031 12.3542 154.688 13.2083 154.688 14.25C154.688 15.2708 155.031 16.1146 155.719 16.7812C156.406 17.4479 157.198 17.7812 158.094 17.7812C159.01 17.7812 159.812 17.4479 160.5 16.7812C161.188 16.1146 161.531 15.2708 161.531 14.25ZM168.594 21.4062V9C168.594 8.39583 168.521 8.02083 168.375 7.875C168.229 7.72917 168.021 7.61458 167.75 7.53125C167.25 7.42708 166.854 7.29167 166.562 7.125C166.292 6.95833 166.156 6.69792 166.156 6.34375C166.156 5.53125 166.615 5.125 167.531 5.125H170.844C171.969 5.125 172.531 5.61458 172.531 6.59375V18.2812C172.531 20.3646 171.521 21.4062 169.5 21.4062H168.594ZM172.062 35.7812H159.938C158.75 35.7812 158.156 35.0625 158.156 33.625V31.1875C158.156 30.7083 158.083 30.4062 157.938 30.2812C157.792 30.1354 157.635 30.0208 157.469 29.9375C157.219 29.875 157.021 29.7604 156.875 29.5938C156.729 29.4271 156.656 29.1562 156.656 28.7812C156.656 28.0729 156.927 27.7188 157.469 27.7188H168.312V25.4062H158.25C157.583 25.4062 157.25 24.9167 157.25 23.9375C157.25 22.9792 157.594 22.5 158.281 22.5H171C171.833 22.5 172.25 23.0208 172.25 24.0625V28.7812C172.25 29.9688 171.823 30.5625 170.969 30.5625H162.094V32.3125C162.094 32.7083 162.333 32.9062 162.812 32.9062H172.188C172.854 32.9062 173.188 33.375 173.188 34.3125C173.188 35.2917 172.812 35.7812 172.062 35.7812ZM184.562 15.5312C184.562 13.4896 185.25 11.7917 186.625 10.4375C188.021 9.08333 189.792 8.40625 191.938 8.40625C194.104 8.40625 195.885 9.08333 197.281 10.4375C198.698 11.7917 199.406 13.4896 199.406 15.5312C199.406 17.5729 198.698 19.2708 197.281 20.625C195.885 21.9583 194.104 22.625 191.938 22.625C189.792 22.625 188.021 21.9583 186.625 20.625C185.25 19.2708 184.562 17.5729 184.562 15.5312ZM195.438 15.5C195.438 14.3125 195.094 13.3229 194.406 12.5312C193.74 11.7396 192.917 11.3438 191.938 11.3438C191 11.3438 190.198 11.7396 189.531 12.5312C188.865 13.3229 188.531 14.3125 188.531 15.5C188.531 16.6875 188.865 17.6667 189.531 18.4375C190.198 19.2083 191 19.5938 191.938 19.5938C192.917 19.5938 193.74 19.2083 194.406 18.4375C195.094 17.6667 195.438 16.6875 195.438 15.5ZM202.438 9C202.438 8.39583 202.365 8.02083 202.219 7.875C202.073 7.72917 201.865 7.61458 201.594 7.53125C201.094 7.42708 200.698 7.29167 200.406 7.125C200.135 6.95833 200 6.69792 200 6.34375C200 5.53125 200.458 5.125 201.375 5.125H204.688C205.812 5.125 206.375 5.60417 206.375 6.5625V25.25C206.375 27.25 205.365 28.25 203.344 28.25H202.438V9ZM206.5 35.3438H194.938C192.833 35.3438 191.781 34.3958 191.781 32.5V28.9375C191.781 28.3333 191.698 27.9583 191.531 27.8125C191.385 27.6667 191.167 27.5417 190.875 27.4375C190.333 27.2917 189.99 27.1354 189.844 26.9688C189.698 26.8021 189.625 26.5625 189.625 26.25C189.625 25.5208 190.031 25.1562 190.844 25.1562H194.062C195.167 25.1562 195.719 25.6354 195.719 26.5938V31.7188C195.719 32.1771 195.906 32.4062 196.281 32.4062H206.625C207.312 32.4062 207.656 32.8958 207.656 33.875C207.656 34.8542 207.271 35.3438 206.5 35.3438ZM213.875 9.59375C213.25 9.59375 212.938 9.10417 212.938 8.125C212.938 7.16667 213.281 6.6875 213.969 6.6875H226.062C227.021 6.6875 227.646 7.02083 227.938 7.6875C228.229 8.33333 228.198 9.01042 227.844 9.71875C227.24 10.8229 226.146 11.9271 224.562 13.0312L229.938 15.125C230.542 15.3542 230.938 15.6667 231.125 16.0625C231.312 16.4583 231.333 16.8542 231.188 17.25C231.042 17.6458 230.719 17.9167 230.219 18.0625C229.74 18.2083 229.198 18.1354 228.594 17.8438L221.812 14.7188C219.375 16.0312 216.688 17.1146 213.75 17.9688C212.438 18.3646 211.677 18.2292 211.469 17.5625C211.281 16.875 211.594 16.3646 212.406 16.0312C215.177 15.0104 217.448 13.9271 219.219 12.7812C220.99 11.6146 222.281 10.5521 223.094 9.59375H213.875ZM232.906 22.7188H209.906C209.24 22.7188 208.906 22.2292 208.906 21.25C208.906 20.25 209.24 19.75 209.906 19.75H232.906C233.656 19.75 234.031 20.25 234.031 21.25C234.031 22.2292 233.656 22.7188 232.906 22.7188ZM214.094 30.25C214.094 28.6458 214.781 27.2292 216.156 26C217.531 24.7708 219.292 24.1562 221.438 24.1562C223.562 24.1562 225.323 24.7708 226.719 26C228.115 27.2292 228.812 28.6458 228.812 30.25C228.812 31.8333 228.115 33.2396 226.719 34.4688C225.323 35.6979 223.562 36.3125 221.438 36.3125C219.292 36.3125 217.531 35.6979 216.156 34.4688C214.781 33.2396 214.094 31.8333 214.094 30.25ZM224.938 30.25C224.938 29.3958 224.594 28.6667 223.906 28.0625C223.24 27.4375 222.406 27.125 221.406 27.125C220.448 27.125 219.635 27.4375 218.969 28.0625C218.302 28.6667 217.969 29.3958 217.969 30.25C217.969 31.0833 218.302 31.8021 218.969 32.4062C219.635 33.0312 220.448 33.3438 221.406 33.3438C222.406 33.3438 223.24 33.0312 223.906 32.4062C224.594 31.8021 224.938 31.0833 224.938 30.25Z" fill="white"/>
<defs>
<radialGradient id="paint0_radial_1219_18" cx="0" cy="0" r="1" gradientUnits="userSpaceOnUse" gradientTransform="translate(33.2 20) scale(42 45.2575)">
<stop offset="0.0104167" stop-color="#6C6C6C" stop-opacity="0"/>
<stop offset="0.63231" stop-color="#BDB5B5"/>
</radialGradient>
</defs>
</svg>
