<svg width="236" height="40" viewBox="0 0 236 40" fill="none" xmlns="http://www.w3.org/2000/svg">
<circle cx="20" cy="20" r="20" fill="url(#paint0_radial_1219_14)"/>
<path d="M26.75 17C26.375 16.8958 26.125 16.7708 26 16.625C25.875 16.4792 25.8333 16.2812 25.875 16.0312C25.9792 15.6771 26.2083 15.4583 26.5625 15.375C26.9167 15.2917 27.3021 15.2708 27.7188 15.3125C29.0938 15.3958 30.1875 15.8229 31 16.5938C31.8125 17.3438 32.1979 18.2917 32.1562 19.4375C32.1354 20.8542 31.5 22.0417 30.25 23C29.4792 23.5625 28.6146 23.9583 27.6562 24.1875V26.2812C28.7812 26.2812 29.7083 26.2708 30.4375 26.25C31.2708 26.2292 32.125 26.1354 33 25.9688C34.25 25.7188 34.9688 25.8854 35.1562 26.4688V9.03125C35.1562 8.40625 35.0625 8.02083 34.875 7.875C34.7083 7.70833 34.4792 7.58333 34.1875 7.5C33.75 7.375 33.3958 7.23958 33.125 7.09375C32.8542 6.94792 32.7188 6.69792 32.7188 6.34375C32.7188 5.53125 33.1562 5.125 34.0312 5.125H37.4375C38.5417 5.125 39.0938 5.57292 39.0938 6.46875V32.7812C39.0938 34.6979 38.0833 35.6562 36.0625 35.6562H35.1562V27.25C35.0938 27.5 34.9271 27.7188 34.6562 27.9062C34.0729 28.2812 33.125 28.5938 31.8125 28.8438C30.5 29.0938 28.875 29.2188 26.9375 29.2188H18.125C17.4583 29.2188 17.125 28.7188 17.125 27.7188C17.125 26.7604 17.4583 26.2812 18.125 26.2812H23.7188V24.25C22.6354 24.0417 21.6667 23.5833 20.8125 22.875C19.5 21.8333 18.8229 20.5312 18.7812 18.9688C18.7812 18.0312 19 17.1979 19.4375 16.4688C19.875 15.7188 20.3958 15.1771 21 14.8438H18.4688C17.7604 14.8438 17.4062 14.3646 17.4062 13.4062C17.4062 12.4688 17.75 12 18.4375 12H31.6875C32.4375 12 32.8125 12.4688 32.8125 13.4062C32.8125 14.3646 32.4375 14.8438 31.6875 14.8438H27.8125C26.2083 14.8438 24.9583 15.25 24.0625 16.0625C23.1667 16.8542 22.7396 17.8125 22.7812 18.9375C22.8021 19.7083 23.0938 20.3333 23.6562 20.8125C24.2396 21.2917 24.8646 21.5312 25.5312 21.5312C26.3021 21.5312 26.9375 21.3125 27.4375 20.875C27.9583 20.4375 28.2292 19.9375 28.25 19.375C28.2917 18.7292 28.1667 18.2083 27.875 17.8125C27.6042 17.4167 27.2292 17.1458 26.75 17ZM21.8438 9.53125L21.0312 8.78125C20.7812 8.53125 20.6458 8.28125 20.625 8.03125C20.6042 7.78125 20.6667 7.54167 20.8125 7.3125C21.0625 6.97917 21.3646 6.79167 21.7188 6.75C22.0938 6.70833 22.5 6.80208 22.9375 7.03125C23.8333 7.44792 24.5521 7.72917 25.0938 7.875C25.6354 8 26.5208 8.0625 27.75 8.0625C28.6875 8.0625 29.1562 8.53125 29.1562 9.46875C29.1562 9.96875 29 10.3333 28.6875 10.5625C28.375 10.7708 28.0312 10.875 27.6562 10.875L25.4688 10.8438C23.9688 10.8438 22.7604 10.4062 21.8438 9.53125ZM42.75 12.0312C42.75 10.3438 43.3854 8.92708 44.6562 7.78125C45.9271 6.63542 47.5729 6.0625 49.5938 6.0625C51.6354 6.0625 53.2917 6.63542 54.5625 7.78125C55.8542 8.92708 56.5 10.3438 56.5 12.0312C56.5 13.6771 55.8542 15.0729 54.5625 16.2188C53.2917 17.3438 51.6354 17.9062 49.5938 17.9062C47.5729 17.9062 45.9271 17.3438 44.6562 16.2188C43.3854 15.0729 42.75 13.6771 42.75 12.0312ZM52.5312 12.0312C52.5312 11.1562 52.2292 10.4375 51.625 9.875C51.0417 9.3125 50.3646 9.03125 49.5938 9.03125C48.8438 9.03125 48.1771 9.3125 47.5938 9.875C47.0104 10.4375 46.7188 11.1562 46.7188 12.0312C46.7188 12.8854 47.0104 13.5833 47.5938 14.125C48.1771 14.6667 48.8438 14.9375 49.5938 14.9375C50.3646 14.9375 51.0417 14.6667 51.625 14.125C52.2292 13.5833 52.5312 12.8854 52.5312 12.0312ZM51.6875 21.5625V24.0625C51.6875 25.7292 50.7708 26.5625 48.9375 26.5625H47.7188V21.5625H42.375C41.7083 21.5625 41.375 21.0729 41.375 20.0938C41.375 19.1354 41.7083 18.6562 42.375 18.6562H51.3438C52.7188 18.6562 53.8229 18.6458 54.6562 18.625C55.5104 18.6042 56.375 18.5 57.25 18.3125C58.5 18.0625 59.2188 18.2396 59.4062 18.8438V18.9062V9C59.4062 8.39583 59.3333 8.02083 59.1875 7.875C59.0417 7.72917 58.8333 7.61458 58.5625 7.53125C58.0625 7.42708 57.6667 7.29167 57.375 7.125C57.1042 6.95833 56.9688 6.69792 56.9688 6.34375C56.9688 5.53125 57.4271 5.125 58.3438 5.125H61.6562C62.7812 5.125 63.3438 5.60417 63.3438 6.5625V26.6562C63.3438 28.6562 62.3333 29.6562 60.3125 29.6562H59.4062V25.9375H54.625C53.9375 25.9375 53.5938 25.4479 53.5938 24.4688C53.5938 23.5104 53.9375 23.0312 54.625 23.0312H59.4062V19.5938C59.3438 19.8646 59.1771 20.0833 58.9062 20.25C58.3229 20.625 57.375 20.9271 56.0625 21.1562C54.8542 21.4062 53.3958 21.5417 51.6875 21.5625ZM63.125 35.3438H51.4688C49.3438 35.3438 48.2812 34.375 48.2812 32.4375V30.9062C48.2812 30.2812 48.2083 29.9062 48.0625 29.7812C47.9167 29.6354 47.6979 29.5104 47.4062 29.4062C46.8646 29.2396 46.5208 29.0729 46.375 28.9062C46.2292 28.7396 46.1562 28.5104 46.1562 28.2188C46.1562 27.5521 46.5625 27.2188 47.375 27.2188H50.5938C51.6771 27.2188 52.2188 27.6875 52.2188 28.625V31.75C52.2188 32.2292 52.4167 32.4688 52.8125 32.4688H63.2812C63.9479 32.4688 64.2812 32.9479 64.2812 33.9062C64.2812 34.8646 63.8958 35.3438 63.125 35.3438ZM67.5938 12.8438C66.9271 12.8438 66.5938 12.3542 66.5938 11.375C66.5938 10.4167 66.9375 9.9375 67.625 9.9375H78.625C79.1875 9.9375 79.5833 10.1562 79.8125 10.5938C80.0625 11.0104 80.1562 11.4583 80.0938 11.9375C79.5938 14.75 78.2292 17.5208 76 20.25C73.7917 22.9792 71.3021 25.1875 68.5312 26.875C67.3438 27.6458 66.5208 27.75 66.0625 27.1875C65.625 26.625 65.7083 26.0729 66.3125 25.5312C68.625 23.7604 70.625 21.6458 72.3125 19.1875C74 16.7292 75.0729 14.6146 75.5312 12.8438H67.5938ZM83.0625 9C83.0625 8.39583 82.9896 8.02083 82.8438 7.875C82.7188 7.72917 82.5208 7.61458 82.25 7.53125C81.75 7.42708 81.3542 7.29167 81.0625 7.125C80.7708 6.95833 80.625 6.69792 80.625 6.34375C80.625 5.53125 81.0833 5.125 82 5.125H85.375C86.4583 5.125 87 5.5625 87 6.4375V16.0938H90.4062C91.0729 16.0938 91.4062 16.5938 91.4062 17.5938C91.4062 18.5938 91.0729 19.0938 90.4062 19.0938H87V32.7812C87 34.6979 86 35.6562 84 35.6562H83.0625V9ZM91.75 14.5C91.75 12.6042 92.4479 11.0104 93.8438 9.71875C95.2604 8.40625 97.0312 7.75 99.1562 7.75C101.281 7.75 103.052 8.40625 104.469 9.71875C105.885 11.0104 106.594 12.6042 106.594 14.5C106.594 16.3542 105.875 17.9167 104.438 19.1875C103.021 20.4583 101.26 21.0938 99.1562 21.0938C97.0312 21.0729 95.2604 20.4375 93.8438 19.1875C92.4479 17.9167 91.75 16.3542 91.75 14.5ZM102.625 14.4688C102.625 13.4062 102.271 12.5312 101.562 11.8438C100.875 11.1562 100.073 10.8125 99.1562 10.8125C98.2604 10.8125 97.4583 11.1562 96.75 11.8438C96.0625 12.5312 95.7188 13.4062 95.7188 14.4688C95.7188 15.5312 96.0625 16.4062 96.75 17.0938C97.4583 17.7604 98.2604 18.0938 99.1562 18.0938C100.073 18.0938 100.875 17.7604 101.562 17.0938C102.271 16.4062 102.625 15.5312 102.625 14.4688ZM109.625 21.75V9C109.625 8.39583 109.552 8.02083 109.406 7.875C109.26 7.72917 109.052 7.61458 108.781 7.53125C108.281 7.42708 107.885 7.29167 107.594 7.125C107.323 6.95833 107.188 6.69792 107.188 6.34375C107.188 5.53125 107.646 5.125 108.562 5.125H111.875C113 5.125 113.562 5.61458 113.562 6.59375V18.6875C113.562 20.7292 112.552 21.75 110.531 21.75H109.625ZM102.938 26.7812H109.562V25.7188C109.562 25.1562 109.521 24.8333 109.438 24.75C109.375 24.6667 109.312 24.6146 109.25 24.5938C108.917 24.4688 108.635 24.3438 108.406 24.2188C108.198 24.0729 108.094 23.8125 108.094 23.4375C108.094 22.75 108.542 22.4062 109.438 22.4062H111.5C112.688 22.4062 113.281 22.875 113.281 23.8125V30.6562C113.281 31.4896 113.146 32.1667 112.875 32.6875C113.438 32.8125 113.719 33.2812 113.719 34.0938C113.719 35.0729 113.333 35.5625 112.562 35.5625H102.062C101.583 36.1458 100.927 36.4375 100.094 36.4375H99.1875V26.7812C99.1875 26.1979 99.1562 25.8542 99.0938 25.75C99.0521 25.6458 99 25.5833 98.9375 25.5625C98.6875 25.4792 98.4375 25.375 98.1875 25.25C97.9375 25.1042 97.8125 24.8438 97.8125 24.4688C97.8125 23.7604 98.2604 23.4062 99.1562 23.4062H101.25C102.375 23.4062 102.938 23.8646 102.938 24.7812V26.7812ZM109.562 29.6875H102.938V32.6562H109.562V29.6875ZM130.438 22.6562H134.219V12.6875H130.438V22.6562ZM136.219 9.78125C137.24 9.78125 137.75 10.3438 137.75 11.4688V15.625H140.375V10.4375C140.375 9.85417 140.312 9.48958 140.188 9.34375C140.062 9.19792 139.854 9.08333 139.562 9C139.062 8.875 138.698 8.75 138.469 8.625C138.24 8.47917 138.125 8.25 138.125 7.9375C138.125 7.16667 138.562 6.78125 139.438 6.78125H142.25C143.354 6.78125 143.906 7.25 143.906 8.1875V30.7812C143.906 32.7812 142.958 33.7812 141.062 33.7812H140.375V18.5625H137.75V20.4062C137.75 21.3229 137.625 22.0833 137.375 22.6875C137.917 22.8125 138.188 23.2812 138.188 24.0938C138.188 25.0729 137.802 25.5625 137.031 25.5625H129.594C129.135 26.1458 128.469 26.4375 127.594 26.4375H126.875V14.0625C126.875 13.2292 126.833 12.7083 126.75 12.5C126.688 12.2917 126.583 12.1458 126.438 12.0625C126.188 11.9167 125.979 11.7708 125.812 11.625C125.667 11.4583 125.594 11.2292 125.594 10.9375C125.594 10.1667 126.052 9.78125 126.969 9.78125H136.219ZM149.281 6.59375V32.6875C149.281 34.6875 148.292 35.6875 146.312 35.6875H145.562V8.90625C145.562 8.34375 145.51 7.98958 145.406 7.84375C145.323 7.67708 145.125 7.55208 144.812 7.46875C144.292 7.36458 143.906 7.23958 143.656 7.09375C143.406 6.94792 143.281 6.69792 143.281 6.34375C143.281 5.53125 143.771 5.125 144.75 5.125H147.625C148.729 5.125 149.281 5.61458 149.281 6.59375ZM151 14.3125C151 12.4375 151.698 10.8646 153.094 9.59375C154.51 8.32292 156.271 7.6875 158.375 7.6875C160.458 7.6875 162.208 8.32292 163.625 9.59375C165.062 10.8646 165.781 12.4375 165.781 14.3125C165.781 16.125 165.062 17.6562 163.625 18.9062C162.208 20.1562 160.458 20.7812 158.375 20.7812C156.271 20.7812 154.51 20.1562 153.094 18.9062C151.698 17.6562 151 16.125 151 14.3125ZM161.812 14.25C161.812 13.2083 161.469 12.3542 160.781 11.6875C160.094 11.0208 159.292 10.6875 158.375 10.6875C157.479 10.6875 156.688 11.0208 156 11.6875C155.312 12.3542 154.969 13.2083 154.969 14.25C154.969 15.2708 155.312 16.1146 156 16.7812C156.688 17.4479 157.479 17.7812 158.375 17.7812C159.292 17.7812 160.094 17.4479 160.781 16.7812C161.469 16.1146 161.812 15.2708 161.812 14.25ZM168.875 21.4062V9C168.875 8.39583 168.802 8.02083 168.656 7.875C168.51 7.72917 168.302 7.61458 168.031 7.53125C167.531 7.42708 167.135 7.29167 166.844 7.125C166.573 6.95833 166.438 6.69792 166.438 6.34375C166.438 5.53125 166.896 5.125 167.812 5.125H171.125C172.25 5.125 172.812 5.61458 172.812 6.59375V18.2812C172.812 20.3646 171.802 21.4062 169.781 21.4062H168.875ZM172.344 35.7812H160.219C159.031 35.7812 158.438 35.0625 158.438 33.625V31.1875C158.438 30.7083 158.365 30.4062 158.219 30.2812C158.073 30.1354 157.917 30.0208 157.75 29.9375C157.5 29.875 157.302 29.7604 157.156 29.5938C157.01 29.4271 156.938 29.1562 156.938 28.7812C156.938 28.0729 157.208 27.7188 157.75 27.7188H168.594V25.4062H158.531C157.865 25.4062 157.531 24.9167 157.531 23.9375C157.531 22.9792 157.875 22.5 158.562 22.5H171.281C172.115 22.5 172.531 23.0208 172.531 24.0625V28.7812C172.531 29.9688 172.104 30.5625 171.25 30.5625H162.375V32.3125C162.375 32.7083 162.615 32.9062 163.094 32.9062H172.469C173.135 32.9062 173.469 33.375 173.469 34.3125C173.469 35.2917 173.094 35.7812 172.344 35.7812ZM184.844 15.5312C184.844 13.4896 185.531 11.7917 186.906 10.4375C188.302 9.08333 190.073 8.40625 192.219 8.40625C194.385 8.40625 196.167 9.08333 197.562 10.4375C198.979 11.7917 199.688 13.4896 199.688 15.5312C199.688 17.5729 198.979 19.2708 197.562 20.625C196.167 21.9583 194.385 22.625 192.219 22.625C190.073 22.625 188.302 21.9583 186.906 20.625C185.531 19.2708 184.844 17.5729 184.844 15.5312ZM195.719 15.5C195.719 14.3125 195.375 13.3229 194.688 12.5312C194.021 11.7396 193.198 11.3438 192.219 11.3438C191.281 11.3438 190.479 11.7396 189.812 12.5312C189.146 13.3229 188.812 14.3125 188.812 15.5C188.812 16.6875 189.146 17.6667 189.812 18.4375C190.479 19.2083 191.281 19.5938 192.219 19.5938C193.198 19.5938 194.021 19.2083 194.688 18.4375C195.375 17.6667 195.719 16.6875 195.719 15.5ZM202.719 9C202.719 8.39583 202.646 8.02083 202.5 7.875C202.354 7.72917 202.146 7.61458 201.875 7.53125C201.375 7.42708 200.979 7.29167 200.688 7.125C200.417 6.95833 200.281 6.69792 200.281 6.34375C200.281 5.53125 200.74 5.125 201.656 5.125H204.969C206.094 5.125 206.656 5.60417 206.656 6.5625V25.25C206.656 27.25 205.646 28.25 203.625 28.25H202.719V9ZM206.781 35.3438H195.219C193.115 35.3438 192.062 34.3958 192.062 32.5V28.9375C192.062 28.3333 191.979 27.9583 191.812 27.8125C191.667 27.6667 191.448 27.5417 191.156 27.4375C190.615 27.2917 190.271 27.1354 190.125 26.9688C189.979 26.8021 189.906 26.5625 189.906 26.25C189.906 25.5208 190.312 25.1562 191.125 25.1562H194.344C195.448 25.1562 196 25.6354 196 26.5938V31.7188C196 32.1771 196.188 32.4062 196.562 32.4062H206.906C207.594 32.4062 207.938 32.8958 207.938 33.875C207.938 34.8542 207.552 35.3438 206.781 35.3438ZM214.156 9.59375C213.531 9.59375 213.219 9.10417 213.219 8.125C213.219 7.16667 213.562 6.6875 214.25 6.6875H226.344C227.302 6.6875 227.927 7.02083 228.219 7.6875C228.51 8.33333 228.479 9.01042 228.125 9.71875C227.521 10.8229 226.427 11.9271 224.844 13.0312L230.219 15.125C230.823 15.3542 231.219 15.6667 231.406 16.0625C231.594 16.4583 231.615 16.8542 231.469 17.25C231.323 17.6458 231 17.9167 230.5 18.0625C230.021 18.2083 229.479 18.1354 228.875 17.8438L222.094 14.7188C219.656 16.0312 216.969 17.1146 214.031 17.9688C212.719 18.3646 211.958 18.2292 211.75 17.5625C211.562 16.875 211.875 16.3646 212.688 16.0312C215.458 15.0104 217.729 13.9271 219.5 12.7812C221.271 11.6146 222.562 10.5521 223.375 9.59375H214.156ZM233.188 22.7188H210.188C209.521 22.7188 209.188 22.2292 209.188 21.25C209.188 20.25 209.521 19.75 210.188 19.75H233.188C233.938 19.75 234.312 20.25 234.312 21.25C234.312 22.2292 233.938 22.7188 233.188 22.7188ZM214.375 30.25C214.375 28.6458 215.062 27.2292 216.438 26C217.812 24.7708 219.573 24.1562 221.719 24.1562C223.844 24.1562 225.604 24.7708 227 26C228.396 27.2292 229.094 28.6458 229.094 30.25C229.094 31.8333 228.396 33.2396 227 34.4688C225.604 35.6979 223.844 36.3125 221.719 36.3125C219.573 36.3125 217.812 35.6979 216.438 34.4688C215.062 33.2396 214.375 31.8333 214.375 30.25ZM225.219 30.25C225.219 29.3958 224.875 28.6667 224.188 28.0625C223.521 27.4375 222.688 27.125 221.688 27.125C220.729 27.125 219.917 27.4375 219.25 28.0625C218.583 28.6667 218.25 29.3958 218.25 30.25C218.25 31.0833 218.583 31.8021 219.25 32.4062C219.917 33.0312 220.729 33.3438 221.688 33.3438C222.688 33.3438 223.521 33.0312 224.188 32.4062C224.875 31.8021 225.219 31.0833 225.219 30.25Z" fill="white"/>
<defs>
<radialGradient id="paint0_radial_1219_14" cx="0" cy="0" r="1" gradientUnits="userSpaceOnUse" gradientTransform="translate(33.2 20) scale(42 45.2575)">
<stop offset="0.0104167" stop-color="#6C6C6C" stop-opacity="0"/>
<stop offset="0.63231" stop-color="#BDB5B5"/>
</radialGradient>
</defs>
</svg>
